<?xml version="1.0" encoding="UTF-8"?>
<!--
  PromptFinder SVG Icon Sprite

  Usage: <svg class="icon"><use href="{% static 'icons/sprite.svg' %}#icon-name"/></svg>

  Icon Sources:
  - Lucide Icons (https://lucide.dev) - MIT License
-->
<svg xmlns="http://www.w3.org/2000/svg" style="display:none">

  <!--
    Icon: image
    Source: Lucide Icons (https://lucide.dev)
    Original: lucide-image
  -->
  <symbol id="icon-image" viewBox="0 0 24 24" fill="none" stroke="currentColor" stroke-width="2" stroke-linecap="round" stroke-linejoin="round">
    <rect width="18" height="18" x="3" y="3" rx="2" ry="2"/>
    <circle cx="9" cy="9" r="2"/>
    <path d="m21 15-3.086-3.086a2 2 0 0 0-2.828 0L6 21"/>
  </symbol>

  <!--
    Icon: video
    Source: Lucide Icons (https://lucide.dev)
    Original: lucide-video
  -->
  <symbol id="icon-video" viewBox="0 0 24 24" fill="none" stroke="currentColor" stroke-width="2" stroke-linecap="round" stroke-linejoin="round">
    <path d="m16 13 5.223 3.482a.5.5 0 0 0 .777-.416V7.87a.5.5 0 0 0-.752-.432L16 10.5"/>
    <rect x="2" y="6" width="14" height="12" rx="2"/>
  </symbol>

  <!--
    Icon: search
    Source: Lucide Icons (https://lucide.dev)
    Original: lucide-search
  -->
  <symbol id="icon-search" viewBox="0 0 24 24" fill="none" stroke="currentColor" stroke-width="2" stroke-linecap="round" stroke-linejoin="round">
    <path d="m21 21-4.34-4.34"/>
    <circle cx="11" cy="11" r="8"/>
  </symbol>

  <!--
    Icon: trophy
    Source: Lucide Icons (https://lucide.dev)
    Original: lucide-trophy
  -->
  <symbol id="icon-trophy" viewBox="0 0 24 24" fill="none" stroke="currentColor" stroke-width="2" stroke-linecap="round" stroke-linejoin="round">
    <path d="M10 14.66v1.626a2 2 0 0 1-.976 1.696A5 5 0 0 0 7 21.978"/>
    <path d="M14 14.66v1.626a2 2 0 0 0 .976 1.696A5 5 0 0 1 17 21.978"/>
    <path d="M18 9h1.5a1 1 0 0 0 0-5H18"/>
    <path d="M4 22h16"/>
    <path d="M6 9a6 6 0 0 0 12 0V3a1 1 0 0 0-1-1H7a1 1 0 0 0-1 1z"/>
    <path d="M6 9H4.5a1 1 0 0 1 0-5H6"/>
  </symbol>

  <!--
    Icon: lightbulb
    Source: Lucide Icons (https://lucide.dev)
    Original: lucide-lightbulb
  -->
  <symbol id="icon-lightbulb" viewBox="0 0 24 24" fill="none" stroke="currentColor" stroke-width="2" stroke-linecap="round" stroke-linejoin="round">
    <path d="M15 14c.2-1 .7-1.7 1.5-2.5 1-.9 1.5-2.2 1.5-3.5A6 6 0 0 0 6 8c0 1 .2 2.2 1.5 3.5.7.7 1.3 1.5 1.5 2.5"/>
    <path d="M9 18h6"/>
    <path d="M10 22h4"/>
  </symbol>

</svg>
