<?xml version="1.0" encoding="UTF-8"?>
<!--
  PromptFinder SVG Icon Sprite

  All icons sourced from Lucide Icons (https://lucide.dev) - MIT License

  Usage: <svg class="icon icon-sm"><use href="{% static 'icons/sprite.svg' %}#icon-name"/></svg>

  Icon Index:
  Phase 1: icon-image, icon-video, icon-search, icon-trophy, icon-lightbulb
  Phase 2: icon-comment, icon-heart, icon-heart-filled, icon-flag, icon-edit, icon-trash,
           icon-external-link, icon-calendar, icon-clock, icon-copy, icon-login, icon-bell
  Phase 3: icon-user, icon-user-pen, icon-mail
  Phase K: icon-bookmark, icon-bookmark-filled, icon-circle-check, icon-circle-minus,
           icon-eye, icon-eye-off, icon-x, icon-arrow-left, icon-arrow-right,
           icon-download, icon-share, icon-plus, icon-restore, icon-folder
  Phase R1-D: icon-square-check
-->
<svg xmlns="http://www.w3.org/2000/svg" style="display:none">

  <!--
    Icon: image
    Source: Lucide Icons (https://lucide.dev)
    Original: lucide-image
  -->
  <symbol id="icon-image" viewBox="0 0 24 24" fill="none" stroke="currentColor" stroke-width="2" stroke-linecap="round" stroke-linejoin="round">
    <rect width="18" height="18" x="3" y="3" rx="2" ry="2"/>
    <circle cx="9" cy="9" r="2"/>
    <path d="m21 15-3.086-3.086a2 2 0 0 0-2.828 0L6 21"/>
  </symbol>

  <!--
    Icon: video
    Source: Lucide Icons (https://lucide.dev)
    Original: lucide-video
  -->
  <symbol id="icon-video" viewBox="0 0 24 24" fill="none" stroke="currentColor" stroke-width="2" stroke-linecap="round" stroke-linejoin="round">
    <path d="m16 13 5.223 3.482a.5.5 0 0 0 .777-.416V7.87a.5.5 0 0 0-.752-.432L16 10.5"/>
    <rect x="2" y="6" width="14" height="12" rx="2"/>
  </symbol>

  <!--
    Icon: search
    Source: Lucide Icons (https://lucide.dev)
    Original: lucide-search
  -->
  <symbol id="icon-search" viewBox="0 0 24 24" fill="none" stroke="currentColor" stroke-width="2" stroke-linecap="round" stroke-linejoin="round">
    <path d="m21 21-4.34-4.34"/>
    <circle cx="11" cy="11" r="8"/>
  </symbol>

  <!--
    Icon: trophy
    Source: Lucide Icons (https://lucide.dev)
    Original: lucide-trophy
  -->
  <symbol id="icon-trophy" viewBox="0 0 24 24" fill="none" stroke="currentColor" stroke-width="2" stroke-linecap="round" stroke-linejoin="round">
    <path d="M10 14.66v1.626a2 2 0 0 1-.976 1.696A5 5 0 0 0 7 21.978"/>
    <path d="M14 14.66v1.626a2 2 0 0 0 .976 1.696A5 5 0 0 1 17 21.978"/>
    <path d="M18 9h1.5a1 1 0 0 0 0-5H18"/>
    <path d="M4 22h16"/>
    <path d="M6 9a6 6 0 0 0 12 0V3a1 1 0 0 0-1-1H7a1 1 0 0 0-1 1z"/>
    <path d="M6 9H4.5a1 1 0 0 1 0-5H6"/>
  </symbol>

  <!--
    Icon: lightbulb
    Source: Lucide Icons (https://lucide.dev)
    Original: lucide-lightbulb
  -->
  <symbol id="icon-lightbulb" viewBox="0 0 24 24" fill="none" stroke="currentColor" stroke-width="2" stroke-linecap="round" stroke-linejoin="round">
    <path d="M15 14c.2-1 .7-1.7 1.5-2.5 1-.9 1.5-2.2 1.5-3.5A6 6 0 0 0 6 8c0 1 .2 2.2 1.5 3.5.7.7 1.3 1.5 1.5 2.5"/>
    <path d="M9 18h6"/>
    <path d="M10 22h4"/>
  </symbol>

  <!-- ============================================
       PHASE 2 ICONS - Added December 23, 2025
       Source: Lucide Icons (https://lucide.dev)
       ============================================ -->

  <!-- Icon: comment (message-circle) -->
  <symbol id="icon-comment" viewBox="0 0 24 24" fill="none" stroke="currentColor" stroke-width="2" stroke-linecap="round" stroke-linejoin="round">
    <path d="M2.992 16.342a2 2 0 0 1 .094 1.167l-1.065 3.29a1 1 0 0 0 1.236 1.168l3.413-.998a2 2 0 0 1 1.099.092 10 10 0 1 0-4.777-4.719"/>
  </symbol>

  <!-- Icon: heart (outline) -->
  <symbol id="icon-heart" viewBox="0 0 24 24" fill="none" stroke="currentColor" stroke-width="2" stroke-linecap="round" stroke-linejoin="round">
    <path d="M19 14c1.49-1.46 3-3.21 3-5.5A5.5 5.5 0 0 0 16.5 3c-1.76 0-3 .5-4.5 2-1.5-1.5-2.74-2-4.5-2A5.5 5.5 0 0 0 2 8.5c0 2.3 1.5 4.05 3 5.5l7 7Z"/>
  </symbol>

  <!-- Icon: heart-filled (solid heart for liked state) -->
  <!-- Note: fill="#ff3a78" on path overrides .icon { fill: none } from icons.css -->
  <symbol id="icon-heart-filled" viewBox="0 0 24 24" stroke="none">
    <path fill="#ff3a78" d="M19 14c1.49-1.46 3-3.21 3-5.5A5.5 5.5 0 0 0 16.5 3c-1.76 0-3 .5-4.5 2-1.5-1.5-2.74-2-4.5-2A5.5 5.5 0 0 0 2 8.5c0 2.3 1.5 4.05 3 5.5l7 7Z"/>
  </symbol>

  <!-- Icon: flag -->
  <symbol id="icon-flag" viewBox="0 0 24 24" fill="none" stroke="currentColor" stroke-width="2" stroke-linecap="round" stroke-linejoin="round">
    <path d="M4 15s1-1 4-1 5 2 8 2 4-1 4-1V3s-1 1-4 1-5-2-8-2-4 1-4 1z"/>
    <line x1="4" x2="4" y1="22" y2="15"/>
  </symbol>

  <!-- Icon: edit (square-pen) -->
  <symbol id="icon-edit" viewBox="0 0 24 24" fill="none" stroke="currentColor" stroke-width="2" stroke-linecap="round" stroke-linejoin="round">
    <path d="M12 3H5a2 2 0 0 0-2 2v14a2 2 0 0 0 2 2h14a2 2 0 0 0 2-2v-7"/>
    <path d="M18.375 2.625a1 1 0 0 1 3 3l-9.013 9.014a2 2 0 0 1-.853.505l-2.873.84a.5.5 0 0 1-.62-.62l.84-2.873a2 2 0 0 1 .506-.852z"/>
  </symbol>

  <!-- Icon: trash (trash-2) -->
  <symbol id="icon-trash" viewBox="0 0 24 24" fill="none" stroke="currentColor" stroke-width="2" stroke-linecap="round" stroke-linejoin="round">
    <path d="M3 6h18"/>
    <path d="M19 6v14c0 1-1 2-2 2H7c-1 0-2-1-2-2V6"/>
    <path d="M8 6V4c0-1 1-2 2-2h4c1 0 2 1 2 2v2"/>
    <line x1="10" x2="10" y1="11" y2="17"/>
    <line x1="14" x2="14" y1="11" y2="17"/>
  </symbol>

  <!-- Icon: external-link (square-arrow-out-up-right) -->
  <symbol id="icon-external-link" viewBox="0 0 24 24" fill="none" stroke="currentColor" stroke-width="2" stroke-linecap="round" stroke-linejoin="round">
    <path d="M21 13v6a2 2 0 0 1-2 2H5a2 2 0 0 1-2-2V5a2 2 0 0 1 2-2h6"/>
    <path d="m21 3-9 9"/>
    <path d="M15 3h6v6"/>
  </symbol>

  <!-- Icon: calendar (calendar-check) -->
  <symbol id="icon-calendar" viewBox="0 0 24 24" fill="none" stroke="currentColor" stroke-width="2" stroke-linecap="round" stroke-linejoin="round">
    <path d="M8 2v4"/>
    <path d="M16 2v4"/>
    <rect width="18" height="18" x="3" y="4" rx="2"/>
    <path d="M3 10h18"/>
    <path d="m9 16 2 2 4-4"/>
  </symbol>

  <!-- Icon: clock (time/duration) -->
  <symbol id="icon-clock" viewBox="0 0 24 24" fill="none" stroke="currentColor" stroke-width="2" stroke-linecap="round" stroke-linejoin="round">
    <circle cx="12" cy="12" r="10"/>
    <path d="M12 6v6l4 2"/>
  </symbol>

  <!-- Icon: copy -->
  <symbol id="icon-copy" viewBox="0 0 24 24" fill="none" stroke="currentColor" stroke-width="2" stroke-linecap="round" stroke-linejoin="round">
    <rect width="14" height="14" x="8" y="8" rx="2" ry="2"/>
    <path d="M4 16c-1.1 0-2-.9-2-2V4c0-1.1.9-2 2-2h10c1.1 0 2 .9 2 2"/>
  </symbol>

  <!-- Icon: login (log-in) - used for both sign-in and sign-out -->
  <symbol id="icon-login" viewBox="0 0 24 24" fill="none" stroke="currentColor" stroke-width="2" stroke-linecap="round" stroke-linejoin="round">
    <path d="M15 3h4a2 2 0 0 1 2 2v14a2 2 0 0 1-2 2h-4"/>
    <polyline points="10 17 15 12 10 7"/>
    <line x1="15" x2="3" y1="12" y2="12"/>
  </symbol>

  <!-- Icon: bell -->
  <symbol id="icon-bell" viewBox="0 0 24 24" fill="none" stroke="currentColor" stroke-width="2" stroke-linecap="round" stroke-linejoin="round">
    <path d="M6 8a6 6 0 0 1 12 0c0 7 3 9 3 9H3s3-2 3-9"/>
    <path d="M10.3 21a1.94 1.94 0 0 0 3.4 0"/>
  </symbol>

  <!-- ============================================
       PHASE 3 ICONS - Added December 24, 2025
       Source: Lucide Icons (https://lucide.dev)
       ============================================ -->

  <!-- Icon: user -->
  <symbol id="icon-user" viewBox="0 0 24 24" fill="none" stroke="currentColor" stroke-width="2" stroke-linecap="round" stroke-linejoin="round">
    <path d="M19 21v-2a4 4 0 0 0-4-4H9a4 4 0 0 0-4 4v2"/>
    <circle cx="12" cy="7" r="4"/>
  </symbol>

  <!-- Icon: user-pen (edit profile) -->
  <symbol id="icon-user-pen" viewBox="0 0 24 24" fill="none" stroke="currentColor" stroke-width="2" stroke-linecap="round" stroke-linejoin="round">
    <path d="M2 21a8 8 0 0 1 10.821-7.487"/>
    <path d="M21.378 16.626a1 1 0 0 0-3.004-3.004l-4.01 4.012a2 2 0 0 0-.506.854l-.837 2.87a.5.5 0 0 0 .62.62l2.87-.837a2 2 0 0 0 .854-.506z"/>
    <circle cx="10" cy="8" r="5"/>
  </symbol>

  <!-- Icon: mail (email preferences) -->
  <symbol id="icon-mail" viewBox="0 0 24 24" fill="none" stroke="currentColor" stroke-width="2" stroke-linecap="round" stroke-linejoin="round">
    <path d="m22 7-8.991 5.727a2 2 0 0 1-2.009 0L2 7"/>
    <rect x="2" y="4" width="20" height="16" rx="2"/>
  </symbol>

  <!-- ═══════════════════════════════════════════════════════════════ -->
  <!-- Phase K: Collections Icons (11 new icons) - December 2025       -->
  <!-- ═══════════════════════════════════════════════════════════════ -->

  <!-- icon-bookmark (Save button - outline) -->
  <symbol id="icon-bookmark" viewBox="0 0 24 24" fill="none" stroke="currentColor" stroke-width="2" stroke-linecap="round" stroke-linejoin="round">
    <path d="m19 21-7-4-7 4V5a2 2 0 0 1 2-2h10a2 2 0 0 1 2 2v16z"/>
  </symbol>

  <!-- icon-bookmark-filled (Active/saved state) -->
  <symbol id="icon-bookmark-filled" viewBox="0 0 24 24" stroke="none">
    <path fill="#ff3a78" d="m19 21-7-4-7 4V5a2 2 0 0 1 2-2h10a2 2 0 0 1 2 2v16z"/>
  </symbol>

  <!-- icon-circle-check (Already in collection) -->
  <symbol id="icon-circle-check" viewBox="0 0 24 24" fill="none" stroke="currentColor" stroke-width="2" stroke-linecap="round" stroke-linejoin="round">
    <circle cx="12" cy="12" r="10"/>
    <path d="m9 12 2 2 4-4"/>
  </symbol>

  <!-- icon-circle-minus (Remove from collection) -->
  <symbol id="icon-circle-minus" viewBox="0 0 24 24" fill="none" stroke="currentColor" stroke-width="2" stroke-linecap="round" stroke-linejoin="round">
    <circle cx="12" cy="12" r="10"/>
    <path d="M8 12h8"/>
  </symbol>

  <!-- icon-eye (Public collection) -->
  <symbol id="icon-eye" viewBox="0 0 24 24" fill="none" stroke="currentColor" stroke-width="2" stroke-linecap="round" stroke-linejoin="round">
    <path d="M2.062 12.348a1 1 0 0 1 0-.696 10.75 10.75 0 0 1 19.876 0 1 1 0 0 1 0 .696 10.75 10.75 0 0 1-19.876 0"/>
    <circle cx="12" cy="12" r="3"/>
  </symbol>

  <!-- icon-eye-off (Private collection) -->
  <symbol id="icon-eye-off" viewBox="0 0 24 24" fill="none" stroke="currentColor" stroke-width="2" stroke-linecap="round" stroke-linejoin="round">
    <path d="M10.733 5.076a10.744 10.744 0 0 1 11.205 6.575 1 1 0 0 1 0 .696 10.747 10.747 0 0 1-1.444 2.49"/>
    <path d="M14.084 14.158a3 3 0 0 1-4.242-4.242"/>
    <path d="M17.479 17.499a10.75 10.75 0 0 1-15.417-5.151 1 1 0 0 1 0-.696 10.75 10.75 0 0 1 4.446-5.143"/>
    <path d="m2 2 20 20"/>
  </symbol>

  <!-- icon-x (Soft close button - light grey) -->
  <symbol id="icon-x" viewBox="0 0 24 24" fill="none" stroke="currentColor" stroke-width="2" stroke-linecap="round" stroke-linejoin="round">
    <path d="M18 6 6 18"/>
    <path d="m6 6 12 12"/>
  </symbol>

  <!-- icon-arrow-left (Back navigation) -->
  <symbol id="icon-arrow-left" viewBox="0 0 24 24" fill="none" stroke="currentColor" stroke-width="2" stroke-linecap="round" stroke-linejoin="round">
    <path d="m12 19-7-7 7-7"/>
    <path d="M19 12H5"/>
  </symbol>

  <!-- icon-arrow-right (Forward navigation / "Your collections" button) -->
  <symbol id="icon-arrow-right" viewBox="0 0 24 24" fill="none" stroke="currentColor" stroke-width="2" stroke-linecap="round" stroke-linejoin="round">
    <path d="M5 12h14"/>
    <path d="m12 5 7 7-7 7"/>
  </symbol>

  <!-- icon-download (Download button) -->
  <symbol id="icon-download" viewBox="0 0 24 24" fill="none" stroke="currentColor" stroke-width="2" stroke-linecap="round" stroke-linejoin="round">
    <path d="M12 15V3"/>
    <path d="M21 15v4a2 2 0 0 1-2 2H5a2 2 0 0 1-2-2v-4"/>
    <path d="m7 10 5 5 5-5"/>
  </symbol>

  <!-- icon-share (Share/copy link) -->
  <symbol id="icon-share" viewBox="0 0 24 24" fill="none" stroke="currentColor" stroke-width="2" stroke-linecap="round" stroke-linejoin="round">
    <circle cx="18" cy="5" r="3"/>
    <circle cx="6" cy="12" r="3"/>
    <circle cx="18" cy="19" r="3"/>
    <line x1="8.59" x2="15.42" y1="13.51" y2="17.49"/>
    <line x1="15.41" x2="8.59" y1="6.51" y2="10.49"/>
  </symbol>

  <!-- icon-plus (Add/Create new) -->
  <symbol id="icon-plus" viewBox="0 0 24 24" fill="none" stroke="currentColor" stroke-width="2" stroke-linecap="round" stroke-linejoin="round">
    <line x1="12" x2="12" y1="5" y2="19"/>
    <line x1="5" x2="19" y1="12" y2="12"/>
  </symbol>

  <!-- icon-circle-plus (Create new with circular ring - Lucide circle-plus) -->
  <symbol id="icon-circle-plus" viewBox="0 0 24 24" fill="none" stroke="currentColor" stroke-width="2" stroke-linecap="round" stroke-linejoin="round">
    <circle cx="12" cy="12" r="10"/>
    <path d="M8 12h8"/>
    <path d="M12 8v8"/>
  </symbol>

  <!-- icon-rotate-ccw (Undo/Restore - Lucide rotate-ccw) -->
  <symbol id="icon-rotate-ccw" viewBox="0 0 24 24" fill="none" stroke="currentColor" stroke-width="2" stroke-linecap="round" stroke-linejoin="round">
    <path d="M3 12a9 9 0 1 0 9-9 9.75 9.75 0 0 0-6.74 2.74L3 8"/>
    <path d="M3 3v5h5"/>
  </symbol>

  <!-- icon-restore (Archive box with upward arrow - Lucide archive-restore) -->
  <symbol id="icon-restore" viewBox="0 0 24 24" fill="none" stroke="currentColor" stroke-width="2" stroke-linecap="round" stroke-linejoin="round">
    <rect width="20" height="5" x="2" y="3" rx="1"/>
    <path d="M4 8v11a2 2 0 0 0 2 2h2"/>
    <path d="M20 8v11a2 2 0 0 1-2 2h-2"/>
    <path d="m9 15 3-3 3 3"/>
    <path d="M12 12v9"/>
  </symbol>

  <!-- icon-folder (Folder - Lucide folder) -->
  <symbol id="icon-folder" viewBox="0 0 24 24" fill="none" stroke="currentColor" stroke-width="2" stroke-linecap="round" stroke-linejoin="round">
    <path d="M20 20a2 2 0 0 0 2-2V8a2 2 0 0 0-2-2h-7.9a2 2 0 0 1-1.69-.9L9.6 3.9A2 2 0 0 0 7.93 3H4a2 2 0 0 0-2 2v13a2 2 0 0 0 2 2Z"/>
  </symbol>

  <!-- ═══════════════════════════════════════════════════════════════ -->
  <!-- Phase R1-D: Notifications Icons - February 2026                 -->
  <!-- ═══════════════════════════════════════════════════════════════ -->

  <!-- icon-square-check (Square checkbox with checkmark - Lucide square-check-big) -->
  <!-- Phase R1-D: Used in notifications "Mark all as read" button -->
  <symbol id="icon-square-check" viewBox="0 0 24 24" fill="none" stroke="currentColor" stroke-width="2" stroke-linecap="round" stroke-linejoin="round">
    <path d="M21 10.656V19a2 2 0 0 1-2 2H5a2 2 0 0 1-2-2V5a2 2 0 0 1 2-2h12.344"/>
    <path d="m9 11 3 3L22 4"/>
  </symbol>

</svg>
